<svg width="258" height="78" viewBox="0 0 258 78" fill="none" xmlns="http://www.w3.org/2000/svg">
<path d="M42.4342 24.248V42.7451L27.6207 51.9932L12.8073 42.7451V24.248L27.6207 15L42.4342 24.248ZM17.4791 27.9268V39.6387L27.6217 45.4941L37.7643 39.6387V27.9268L27.6217 22.0713L17.4791 27.9268Z" fill="white"/>
<path d="M38.4497 29.3264V35.7717L30.0288 40.7434V50.6868L38.4497 55.6594L46.8696 50.6868L51.5669 46.72V54.5559L38.2866 63.0002L25.0063 54.5559V37.6672L38.2866 29.2229L38.4497 29.3264Z" fill="white"/>
<path d="M29.6542 37.5869V54.4756L16.3739 62.9199L3.09363 54.4756V47.6289L3.84753 48.4951L8.11609 50.6074L16.537 55.5791L24.9569 50.6074V40.6631L16.537 35.6914L14.9813 30.0273L16.3739 29.1426L29.6542 37.5869Z" fill="white"/>
<ellipse cx="50.8561" cy="51.2398" rx="4.45169" ry="4.41947" fill="white"/>
<ellipse cx="4.45169" cy="51.2398" rx="4.45169" ry="4.41947" fill="white"/>
<ellipse cx="4.33324" cy="51.1888" rx="2.22521" ry="2.2252" fill="#5E2D7D"/>
<ellipse cx="50.7113" cy="51.1888" rx="2.22521" ry="2.2252" fill="#351A4B"/>
<path d="M83.5879 63.54C77.9879 63.54 73.5479 62.58 70.2679 60.66C67.0279 58.74 65.4079 56.08 65.4079 52.68C65.4079 51.2 65.9679 50 67.0879 49.08C68.2079 48.16 70.0879 47.7 72.7279 47.7C72.8879 50.62 73.8879 52.84 75.7279 54.36C77.6079 55.84 80.2279 56.58 83.5879 56.58C86.1879 56.58 88.2279 56.14 89.7079 55.26C91.1879 54.34 91.9279 53.08 91.9279 51.48C91.9279 50.4 91.6479 49.52 91.0879 48.84C90.5279 48.16 89.5479 47.54 88.1479 46.98C86.7879 46.42 84.7879 45.84 82.1479 45.24C78.1479 44.32 75.0079 43.28 72.7279 42.12C70.4479 40.96 68.7879 39.58 67.7479 37.98C66.7479 36.38 66.2479 34.38 66.2479 31.98C66.2479 29.7 66.9279 27.7 68.2879 25.98C69.6879 24.22 71.6279 22.86 74.1079 21.9C76.5879 20.94 79.4679 20.46 82.7479 20.46C85.8679 20.46 88.6679 20.88 91.1479 21.72C93.6279 22.52 95.5679 23.66 96.9679 25.14C98.3679 26.62 99.0679 28.32 99.0679 30.24C99.0679 31.72 98.5079 32.9 97.3879 33.78C96.3079 34.62 94.5079 35.08 91.9879 35.16C91.7879 32.48 90.9679 30.52 89.5279 29.28C88.0879 28.04 85.8279 27.42 82.7479 27.42C80.2279 27.42 78.2879 27.82 76.9279 28.62C75.5679 29.42 74.8879 30.58 74.8879 32.1C74.8879 33.14 75.1479 34 75.6679 34.68C76.1879 35.32 77.0679 35.9 78.3079 36.42C79.5879 36.94 81.4079 37.46 83.7679 37.98C87.8879 38.9 91.1479 39.96 93.5479 41.16C95.9879 42.32 97.7479 43.72 98.8279 45.36C99.9479 47 100.508 49.02 100.508 51.42C100.508 53.86 99.8079 56 98.4079 57.84C97.0479 59.68 95.0879 61.1 92.5279 62.1C90.0079 63.06 87.0279 63.54 83.5879 63.54ZM133.104 57.3C133.104 59.3 132.444 60.84 131.124 61.92C129.804 63 127.844 63.54 125.244 63.54V60C125.844 59.36 126.344 58.68 126.744 57.96L126.324 57.72C123.804 61.6 120.404 63.54 116.124 63.54C114.124 63.54 112.304 63.08 110.664 62.16C109.024 61.2 107.724 59.88 106.764 58.2C105.844 56.48 105.384 54.54 105.384 52.38V37.26C105.384 35.54 106.044 34.32 107.364 33.6C108.724 32.84 110.804 32.46 113.604 32.46V51.78C113.604 53.22 114.044 54.36 114.924 55.2C115.804 56.04 117.084 56.46 118.764 56.46C120.684 56.46 122.184 55.86 123.264 54.66C124.344 53.42 124.884 51.84 124.884 49.92V37.26C124.884 35.54 125.544 34.32 126.864 33.6C128.224 32.84 130.304 32.46 133.104 32.46V57.3ZM145.073 30.18C143.553 30.18 142.273 29.74 141.233 28.86C140.233 27.94 139.733 26.76 139.733 25.32C139.733 23.88 140.233 22.72 141.233 21.84C142.273 20.92 143.553 20.46 145.073 20.46C146.593 20.46 147.853 20.92 148.853 21.84C149.893 22.72 150.413 23.88 150.413 25.32C150.413 26.76 149.893 27.94 148.853 28.86C147.853 29.74 146.593 30.18 145.073 30.18ZM140.933 37.26C140.933 35.54 141.613 34.32 142.973 33.6C144.333 32.84 146.393 32.46 149.153 32.46V58.74C149.153 60.46 148.473 61.7 147.113 62.46C145.753 63.18 143.693 63.54 140.933 63.54V37.26ZM161.638 63C160.358 63 159.258 62.54 158.338 61.62C157.458 60.7 157.018 59.6 157.018 58.32V26.82C157.018 24.66 157.738 23.06 159.178 22.02C160.618 20.98 162.838 20.46 165.838 20.46V55.38H181.318C183.318 55.38 184.838 56.04 185.878 57.36C186.958 58.64 187.498 60.52 187.498 63H161.638ZM197.631 30.18C196.111 30.18 194.831 29.74 193.791 28.86C192.791 27.94 192.291 26.76 192.291 25.32C192.291 23.88 192.791 22.72 193.791 21.84C194.831 20.92 196.111 20.46 197.631 20.46C199.151 20.46 200.411 20.92 201.411 21.84C202.451 22.72 202.971 23.88 202.971 25.32C202.971 26.76 202.451 27.94 201.411 28.86C200.411 29.74 199.151 30.18 197.631 30.18ZM193.491 37.26C193.491 35.54 194.171 34.32 195.531 33.6C196.891 32.84 198.951 32.46 201.711 32.46V58.74C201.711 60.46 201.031 61.7 199.671 62.46C198.311 63.18 196.251 63.54 193.491 63.54V37.26ZM212.517 39.06H207.777C207.777 36.98 208.057 35.46 208.617 34.5C209.217 33.5 210.117 33 211.317 33H212.517V30.96C212.517 27.96 213.397 25.46 215.157 23.46C216.957 21.46 219.577 20.46 223.017 20.46C225.417 20.46 227.237 20.98 228.477 22.02C229.757 23.02 230.397 24.16 230.397 25.44C230.397 26.04 230.257 26.64 229.977 27.24C229.737 27.84 229.397 28.34 228.957 28.74C227.477 27.94 225.977 27.54 224.457 27.54C223.177 27.54 222.237 27.84 221.637 28.44C221.037 29 220.737 29.94 220.737 31.26V33H228.597C228.597 35.16 228.197 36.72 227.397 37.68C226.597 38.6 225.277 39.06 223.437 39.06H220.737V58.74C220.737 60.46 220.057 61.7 218.697 62.46C217.377 63.18 215.317 63.54 212.517 63.54V39.06ZM247.547 63.54C244.147 63.54 241.647 62.56 240.047 60.6C238.447 58.64 237.647 56.12 237.647 53.04V39.06H231.287C231.287 37.02 231.667 35.5 232.427 34.5C233.187 33.5 234.187 33 235.427 33H237.767V28.26C237.767 26.54 238.427 25.32 239.747 24.6C241.067 23.84 243.067 23.46 245.747 23.46V33H253.727C253.727 35.16 253.327 36.72 252.527 37.68C251.727 38.6 250.407 39.06 248.567 39.06H245.867V52.74C245.867 54.06 246.127 55.02 246.647 55.62C247.167 56.18 248.067 56.46 249.347 56.46C250.747 56.46 252.187 56.06 253.667 55.26C254.107 55.66 254.447 56.16 254.687 56.76C254.967 57.36 255.107 57.96 255.107 58.56C255.107 59.36 254.827 60.14 254.267 60.9C253.707 61.66 252.847 62.3 251.687 62.82C250.567 63.3 249.187 63.54 247.547 63.54Z" fill="white"/>
</svg>
